<svg width="104" height="180" fill="none" xmlns="http://www.w3.org/2000/svg">
  <path fill="#9087E5" d="M0 16h104v164H0z"/>
  <path d="M0 0h88.873L104 16H0V0Z" fill="#AEA7EC"/>
  <path d="M51.237 77.66c10.44 0 16.62-5.1 16.62-13.14 0-5.46-3.36-9-8.34-10.08 4.26-1.5 7.08-4.5 7.08-9.3 0-6.72-5.52-11.64-14.94-11.64-9.78 0-15.36 5.76-15.84 13.62h8.58c.48-4.02 3-6.48 7.08-6.48 3.96 0 5.94 2.28 5.94 5.34 0 3.66-2.04 5.7-6.54 5.7h-3.12v6.48h3.36c4.62 0 6.9 2.1 6.9 6.18 0 3.84-2.28 6.18-7.14 6.18-5.16 0-7.38-3-7.74-7.14h-8.76c.36 8.7 5.94 14.28 16.86 14.28Z" fill="#fff"/>
</svg>