<svg width="56" height="56" fill="none" xmlns="http://www.w3.org/2000/svg">
  <circle cx="28" cy="28" r="28" fill="#BF83FF"/>
  <mask id="a" style="mask-type:alpha" maskUnits="userSpaceOnUse" x="0" y="0" width="56" height="56">
    <circle cx="28" cy="28" r="28" fill="#C4C4C4"/>
  </mask>
  <g mask="url(#a)">
    <path fill-rule="evenodd" clip-rule="evenodd" d="M28 14.496c-5.623 0-10.182 4.559-10.182 10.182v1.037A2.182 2.182 0 0 0 16 27.866v2.494c0 1.103.819 2.014 1.881 2.16a10.19 10.19 0 0 0 5.755 8.064v3.347c-7.7.415-13.818 6.79-13.818 14.595h36.364c0-7.804-6.117-14.18-13.818-14.595v-3.347a10.19 10.19 0 0 0 5.755-8.063A2.182 2.182 0 0 0 40 30.36v-2.494a2.182 2.182 0 0 0-1.818-2.151v-1.037c0-5.623-4.559-10.182-10.182-10.182Z" fill="#D0C6AC"/>
    <mask id="b" style="mask-type:luminance" maskUnits="userSpaceOnUse" x="9" y="14" width="38" height="45">
      <path fill-rule="evenodd" clip-rule="evenodd" d="M28 14.496c-5.623 0-10.182 4.559-10.182 10.182v1.037A2.182 2.182 0 0 0 16 27.866v2.494c0 1.103.819 2.014 1.881 2.16a10.19 10.19 0 0 0 5.755 8.064v3.347c-7.7.415-13.818 6.79-13.818 14.595h36.364c0-7.804-6.117-14.18-13.818-14.595v-3.347a10.19 10.19 0 0 0 5.755-8.063A2.182 2.182 0 0 0 40 30.36v-2.494a2.182 2.182 0 0 0-1.818-2.151v-1.037c0-5.623-4.559-10.182-10.182-10.182Z" fill="#fff"/>
    </mask>
    <g mask="url(#b)">
      <path fill="#FFCCD7" d="M4 14.496h48v44.03H4z"/>
      <path fill="#FFCCD7" d="M4 14.496h48v44.03H4z"/>
      <path fill-rule="evenodd" clip-rule="evenodd" d="M17.818 31.382v1.444c0 5.623 4.559 10.181 10.182 10.181s10.182-4.558 10.182-10.181v-1.444c0 5.623-4.559 10.182-10.182 10.182s-10.182-4.559-10.182-10.182Z" fill="#000" fill-opacity=".1"/>
    </g>
    <path fill-rule="evenodd" clip-rule="evenodd" d="M28.091 50.555c4.97 0 9-2.381 9-5.32 0-.08-.003-.162-.01-.242 5.338 2.174 9.1 7.414 9.1 13.533H9.819c0-6.19 3.851-11.482 9.289-13.608-.01.105-.016.211-.016.318 0 2.938 4.03 5.32 9 5.32Z" fill="#6223A9"/>
    <mask id="c" style="mask-type:luminance" maskUnits="userSpaceOnUse" x="9" y="44" width="38" height="15">
      <path fill-rule="evenodd" clip-rule="evenodd" d="M28.091 50.555c4.97 0 9-2.381 9-5.32 0-.08-.003-.162-.01-.242 5.338 2.174 9.1 7.414 9.1 13.533H9.819c0-6.19 3.851-11.482 9.289-13.608-.01.105-.016.211-.016.318 0 2.938 4.03 5.32 9 5.32Z" fill="#fff"/>
    </mask>
    <g mask="url(#c)">
      <path fill="#6223A9" d="M4 38.677h48v19.85H4z"/>
    </g>
    <path fill-rule="evenodd" clip-rule="evenodd" d="M25.455 34.887A2.536 2.536 0 0 0 28 37.413a2.536 2.536 0 0 0 2.546-2.526" fill="#0C092A"/>
    <path fill-rule="evenodd" clip-rule="evenodd" d="M25.818 31.459c0 .797.977 1.443 2.182 1.443s2.182-.646 2.182-1.444" fill="#0C092A" opacity=".3"/>
    <ellipse cx="23.273" cy="28.21" rx="1.091" ry="1.083" fill="#0C092A"/>
    <ellipse cx="32.727" cy="28.21" rx="1.091" ry="1.083" fill="#0C092A"/>
    <path d="M20.66 25.893c.712-.994 2.663-1.551 4.344-1.142a.36.36 0 1 0 .174-.701c-1.952-.475-4.212.17-5.11 1.425a.36.36 0 0 0 .085.503c.164.116.39.078.507-.085ZM35.34 25.893c-.712-.994-2.663-1.551-4.344-1.142a.36.36 0 1 1-.173-.701c1.952-.475 4.211.17 5.11 1.425a.36.36 0 0 1-.086.503.366.366 0 0 1-.507-.085Z" fill="#0C092A"/>
    <mask id="d" style="mask-type:luminance" maskUnits="userSpaceOnUse" x="4" y="8" width="48" height="51">
      <path fill="#fff" d="M4 8h48v50.526H4z"/>
    </mask>
    <g mask="url(#d)">
      <path fill-rule="evenodd" clip-rule="evenodd" d="M11.091 34.165c-.112-5.564 5.149-17.18 7.09-19.488 1.441-1.713 5.4-3.15 9.82-3.068 4.418.081 8.52 1.049 10 2.887 2.24 2.784 6.884 13.368 6.908 19.67.017 4.475-1.734 8.96-4.182 9.202-1.382.137-3.137-.04-5.247-.253a129.77 129.77 0 0 0-3.116-.288v-2.243a10.183 10.183 0 0 0 5.818-9.202v-5.055a23.68 23.68 0 0 1-4.892-3.587c.61 1.126 1.307 2.148 2.094 2.921-5.56-1.548-9.404-4.719-11.708-7.205-1.059 2-2.955 4.923-5.858 7.15v5.776c0 4.062 2.378 7.568 5.818 9.202v2.378c-1.264.171-2.439.39-3.52.59-1.972.366-3.633.674-4.955.538-2.586-.265-3.98-5.45-4.07-9.925Z" fill="#E6E6E6"/>
      <mask id="e" style="mask-type:luminance" maskUnits="userSpaceOnUse" x="11" y="11" width="34" height="34">
        <path fill-rule="evenodd" clip-rule="evenodd" d="M11.091 34.165c-.112-5.564 5.149-17.18 7.09-19.488 1.441-1.713 5.4-3.15 9.82-3.068 4.418.081 8.52 1.049 10 2.887 2.24 2.784 6.884 13.368 6.908 19.67.017 4.475-1.734 8.96-4.182 9.202-1.382.137-3.137-.04-5.247-.253a129.77 129.77 0 0 0-3.116-.288v-2.243a10.183 10.183 0 0 0 5.818-9.202v-5.055a23.68 23.68 0 0 1-4.892-3.587c.61 1.126 1.307 2.148 2.094 2.921-5.56-1.548-9.404-4.719-11.708-7.205-1.059 2-2.955 4.923-5.858 7.15v5.776c0 4.062 2.378 7.568 5.818 9.202v2.378c-1.264.171-2.439.39-3.52.59-1.972.366-3.633.674-4.955.538-2.586-.265-3.98-5.45-4.07-9.925Z" fill="#fff"/>
      </mask>
      <g mask="url(#e)">
        <path fill="#0C092A" d="M3.818 8h48.364v50.526H3.818z"/>
      </g>
    </g>
  </g>
</svg>