<svg width="64" height="64" fill="none" xmlns="http://www.w3.org/2000/svg">
  <g clip-path="url(#a)">
    <rect width="64" height="64" rx="20" fill="#C4D0FB"/>
    <rect x="8" y="16" width="48" height="66" rx="8" fill="#fff"/>
    <g clip-path="url(#b)" stroke="#6A5AE0" stroke-width="3" stroke-linecap="round" stroke-linejoin="round">
      <path d="M34.333 37.667H35.5c1.167 0 1.167 1.166 2.352 4.115C39 44.667 39 45.833 40.167 45.833h1.166"/>
      <path d="M33.167 45.833c1.75 0 3.5-2.333 4.666-4.083C39 40 40.75 37.667 42.5 37.667M21.5 48.167c0 1.75.583 2.333 2.333 2.333 1.75 0 2.334-4.667 3.5-10.5 1.167-5.833 1.75-10.5 3.5-10.5s2.334.583 2.334 2.333M23.833 40h7"/>
    </g>
  </g>
  <defs>
    <clipPath id="a">
      <rect width="64" height="64" rx="20" fill="#fff"/>
    </clipPath>
    <clipPath id="b">
      <path fill="#fff" transform="translate(18 26)" d="M0 0h28v28H0z"/>
    </clipPath>
  </defs>
</svg>