<svg width="48" height="48" fill="none" xmlns="http://www.w3.org/2000/svg">
  <path d="M47.89 26.282A24 24 0 1 1 2.306 13.719C6.511 4.847 15.94-.876 26.278.11 39.473 1.37 49.149 13.087 47.89 26.282Z" fill="#C4D0FB"/>
  <path d="m39.387 42.419-.834.666a24.175 24.175 0 0 1-2.713 1.795 24.008 24.008 0 0 1-33.07-9.678c3.811-2.8 10.19-6.147 18.351-5.464 13.65 1.149 18.266 12.68 18.266 12.68Z" fill="#6A5AE0"/>
  <path d="M23.124 35.428a3.845 3.845 0 0 1-3.823-4.3l1.821-15.32a3.845 3.845 0 1 1 7.637.91l-1.822 15.32a3.845 3.845 0 0 1-3.813 3.39Z" fill="#FFCCD7"/>
  <path d="m26.342 27.601.816.091a6.495 6.495 0 0 0 7.204-6.929l-.346-4.715a6.496 6.496 0 0 0-12.938-.18l-.47 4.623a6.495 6.495 0 0 0 5.734 7.11Z" fill="#FFCCD7"/>
  <path d="M22.565 22.59v-.001a2.388 2.388 0 0 0 .783-3.285l-.71-1.154a2.388 2.388 0 0 0-4.069 2.503l.71 1.154a2.388 2.388 0 0 0 3.286.782Z" fill="#FFCCD7"/>
  <path d="m19.622 19.233 1.914 2.024M31.005 16.647l.135 3.79-1.348.054" stroke="#001833" stroke-width=".5" stroke-linecap="square"/>
  <path d="M26.99 21.668a1.785 1.785 0 0 0 1.385 2.622 1.785 1.785 0 0 0 1.752-.925c.468-.868-.443-1.263-1.316-1.732-.872-.468-1.352-.831-1.821.035ZM23.066 20.983l1.821-6.841.433-1.62c.405.436.88.8 1.406 1.08 1.906 1.026 7.654.617 8.45-3.413.65-3.286-2.84-1.397-4.627-1.602-2.808-.324-4.756-1.977-8.601.1-4.599 2.489-2.42 8.588-2.42 8.588s2.023-.792 3.538 3.708Z" fill="#001833"/>
  <path opacity=".4" d="m27.361 27.712-2.435-.221 2.224 2.17.211-1.949Z" fill="#24272D"/>
  <path d="M28.41 18.694a.669.669 0 1 0 0-1.338.669.669 0 0 0 0 1.338ZM32.4 18.694a.669.669 0 1 0 0-1.338.669.669 0 0 0 0 1.338Z" fill="#001833"/>
</svg>