<svg width="20" height="20" fill="none" xmlns="http://www.w3.org/2000/svg">
  <g clip-path="url(#a)" stroke="#FFD700" stroke-width="1.5" stroke-linecap="round" stroke-linejoin="round">
    <path d="M10 13.333a3.333 3.333 0 1 0 0-6.666 3.333 3.333 0 0 0 0 6.666ZM5.25 14.75l-.583.583M2.5 10h.833H2.5ZM10 2.5v.833V2.5Zm6.667 7.5h.833-.833ZM10 16.667v.833-.833Zm-5.333-12 .583.583-.583-.583Zm10.666 0-.583.583.583-.583ZM14.75 14.75l.583.583-.583-.583Z"/>
  </g>
  <defs>
    <clipPath id="a">
      <path fill="#fff" d="M0 0h20v20H0z"/>
    </clipPath>
  </defs>
</svg>